<?xml version="1.0" encoding="utf-8"?>
<svg xmlns="http://www.w3.org/2000/svg" version="1.2" baseProfile="tiny" id="NetMQLogo"
     x="0px" y="0px" width="177.591px" height="43.966px" viewBox="0 0 177.591 43.966" xml:space="preserve">
  <g>
    <path fill="#4D4D4F" d="M11.919,22.009C9.913,20.12,7.14,16.521,7.14,16.521s0.59,4.425,0.59,7.317v16.816H0V0.177h0.826l20.239,19
          c1.947,1.829,4.721,5.487,4.721,5.487s-0.531-4.544-0.531-7.316V0.53h7.73v40.479h-0.826L11.919,22.009z"/>
    <path fill="#4D4D4F" d="M51.605,34.577c2.892,0,5.075-1.121,6.314-2.006l4.543,4.896c-2.419,2.125-5.488,3.719-10.739,3.719
          c-8.969,0-14.751-5.43-14.751-13.159c0-7.611,6.078-13.04,13.866-13.04c9.028,0,13.925,6.727,13.335,15.519H45.115
          C45.881,33.103,48.006,34.577,51.605,34.577z M56.148,25.903c-0.354-2.773-2.124-4.426-5.251-4.426s-5.251,1.416-5.9,4.426H56.148z"/>
    <path fill="#4D4D4F" d="M70.209,31.214v-9.087h-3.717v-6.608h3.717v-13.1h7.907v13.1h6.432v6.608h-6.432v9.323
          c0,2.537,0.826,3.068,2.065,3.068c1.298,0,2.242-0.709,2.773-1.062l3.009,5.547c-1.239,1.003-3.363,2.301-7.022,2.301
          C73.868,41.304,70.209,38.767,70.209,31.214z"/>
    <path fill="#ED1C24" d="M91.389,0.118h0.649l19.767,21.714l19.473-21.714h0.707v40.537h-7.965V25.608
          c0-2.715,0.295-7.021,0.295-7.021s-2.42,3.54-4.308,5.664l-7.966,8.91h-0.768l-7.965-8.91c-1.889-2.124-4.308-5.664-4.308-5.664
          s0.295,4.307,0.295,7.021v15.047h-7.907V0.118z"/>
    <path fill="#ED1C24" d="M175.532,39.422l-5.487,4.544l-3.96-4.846c-2.773,1.299-5.9,2.066-9.264,2.066
          c-11.565,0-20.771-8.733-20.771-20.594C136.051,8.733,145.256,0,156.821,0s20.77,8.733,20.77,20.593
          c0,5.724-2.124,10.739-5.664,14.397L175.532,39.422z M154.113,24.732l5.547-4.544l7.074,8.842c1.533-2.183,2.359-5.074,2.359-8.438
          c0-7.494-4.956-13.217-12.272-13.217c-7.317,0-12.273,5.723-12.273,13.217s4.956,13.217,12.273,13.217
          c1.476,0,2.832-0.176,4.071-0.59L154.113,24.732z"/>
  </g>
</svg>
