<?xml version="1.0" encoding="UTF-8" standalone="no"?>
<svg
   xmlns:dc="http://purl.org/dc/elements/1.1/"
   xmlns:cc="http://creativecommons.org/ns#"
   xmlns:rdf="http://www.w3.org/1999/02/22-rdf-syntax-ns#"
   xmlns:svg="http://www.w3.org/2000/svg"
   xmlns="http://www.w3.org/2000/svg"
   xmlns:sodipodi="http://sodipodi.sourceforge.net/DTD/sodipodi-0.dtd"
   xmlns:inkscape="http://www.inkscape.org/namespaces/inkscape"
   version="1.2"
   id="NetMQLogo"
   x="0px"
   y="0px"
   width="86.308899"
   height="86.308899"
   viewBox="0 0 86.308897 86.3089"
   xml:space="preserve"
   inkscape:version="0.91 r13725"
   sodipodi:docname="NetMQLogoSquare.svg"
   inkscape:export-filename="C:\Users\Drew\Dev\netmq\img\NetMQLogoSquare-400px.png"
   inkscape:export-xdpi="417.06"
   inkscape:export-ydpi="417.06"><metadata
     id="metadata3353"><rdf:RDF><cc:Work
         rdf:about=""><dc:format>image/svg+xml</dc:format><dc:type
           rdf:resource="http://purl.org/dc/dcmitype/StillImage" /><dc:title></dc:title></cc:Work></rdf:RDF></metadata><defs
     id="defs3351" /><sodipodi:namedview
     pagecolor="#ffffff"
     bordercolor="#666666"
     borderopacity="1"
     objecttolerance="10"
     gridtolerance="10"
     guidetolerance="10"
     inkscape:pageopacity="0"
     inkscape:pageshadow="2"
     inkscape:window-width="1920"
     inkscape:window-height="1057"
     id="namedview3349"
     showgrid="false"
     inkscape:zoom="5.8371118"
     inkscape:cx="58.873962"
     inkscape:cy="45.9685"
     inkscape:window-x="-8"
     inkscape:window-y="-8"
     inkscape:window-maximized="1"
     inkscape:current-layer="NetMQLogo"
     fit-margin-top="0"
     fit-margin-left="0"
     fit-margin-right="0"
     fit-margin-bottom="0" /><path
     style="fill:#4d4d4f"
     inkscape:connector-curvature="0"
     id="path3339"
     d="m 11.919,21.832002 c -2.006,-1.889 -4.779,-5.488 -4.779,-5.488 0,0 0.59,4.425 0.59,7.317 l 0,16.816 -7.73,0 L 0,2.1484374e-6 l 0.826,0 L 21.065,19.000002 c 1.947,1.829 4.721,5.487 4.721,5.487 0,0 -0.531,-4.544 -0.531,-7.316 l 0,-16.81799986 7.73,0 0,40.47899986 -0.826,0 -20.24,-19 z" /><path
     style="fill:#4d4d4f"
     inkscape:connector-curvature="0"
     id="path3341"
     d="m 51.605,34.400002 c 2.892,0 5.075,-1.121 6.314,-2.006 l 4.543,4.896 c -2.419,2.125 -5.488,3.719 -10.739,3.719 -8.969,0 -14.751,-5.43 -14.751,-13.159 0,-7.611 6.078,-13.04 13.866,-13.04 9.028,0 13.925,6.727 13.335,15.519 l -19.058,0 c 0.766,2.597 2.891,4.071 6.49,4.071 z m 4.543,-8.674 c -0.354,-2.773 -2.124,-4.426 -5.251,-4.426 -3.127,0 -5.251,1.416 -5.9,4.426 l 11.151,0 z" /><path
     style="fill:#4d4d4f"
     inkscape:connector-curvature="0"
     id="path3343"
     d="m 70.209,31.037002 0,-9.087 -3.717,0 0,-6.608 3.717,0 0,-13.0999998 7.907,0 0,13.0999998 6.432,0 0,6.608 -6.432,0 0,9.323 c 0,2.537 0.826,3.068 2.065,3.068 1.298,0 2.242,-0.709 2.773,-1.062 l 3.009,5.547 c -1.239,1.003 -3.363,2.301 -7.022,2.301 -5.073,0 -8.732,-2.537 -8.732,-10.09 z" /><path
     style="fill:#ed1c24"
     inkscape:connector-curvature="0"
     id="path3345"
     d="m 0.11583904,42.4609 0.649,0 19.76700096,21.714 19.473,-21.714 0.707,0 0,40.537 -7.965,0 0,-15.047 c 0,-2.715 0.295,-7.021 0.295,-7.021 0,0 -2.42,3.54 -4.308,5.664 l -7.966,8.91 -0.768,0 -7.965,-8.91 c -1.889001,-2.124 -4.3080012,-5.664 -4.3080012,-5.664 0,0 0.295,4.307 0.295,7.021 l 0,15.047 -7.90699976,0 0,-40.537 z" /><path
     style="fill:#ed1c24"
     inkscape:connector-curvature="0"
     id="path3347"
     d="m 84.25884,81.7649 -5.487,4.544 -3.96,-4.846 c -2.773,1.299 -5.9,2.066 -9.264,2.066 -11.565,0 -20.771,-8.733 -20.771,-20.594 10e-4,-11.859 9.206,-20.592 20.771,-20.592 11.565,0 20.77,8.733 20.77,20.593 0,5.724 -2.124,10.739 -5.664,14.397 l 3.605,4.432 z m -21.419,-14.69 5.547,-4.544 7.074,8.842 c 1.533,-2.183 2.359,-5.074 2.359,-8.438 0,-7.494 -4.956,-13.217 -12.272,-13.217 -7.317,0 -12.273,5.723 -12.273,13.217 0,7.494 4.956,13.217 12.273,13.217 1.476,0 2.832,-0.176 4.071,-0.59 l -6.779,-8.487 z" /></svg>